<svg width="96" height="96" viewBox="0 0 96 96" fill="none" xmlns="http://www.w3.org/2000/svg">
<g clip-path="url(#clip0_14_8)">
<rect width="96" height="96" fill="black"/>
<path d="M1.368 1.2H7.032V13.608H14.616V18H1.368V1.2ZM30.1485 13.728V18H16.1805V1.2H29.8365V5.472H21.7485V7.44H28.8525V11.52H21.7485V13.728H30.1485ZM38.5929 18.384C37.2009 18.384 35.8409 18.232 34.5129 17.928C33.2009 17.608 32.1209 17.184 31.2729 16.656L33.0969 12.528C33.8969 12.992 34.7929 13.368 35.7849 13.656C36.7769 13.928 37.7289 14.064 38.6409 14.064C39.4249 14.064 39.9849 13.992 40.3209 13.848C40.6569 13.688 40.8249 13.456 40.8249 13.152C40.8249 12.8 40.6009 12.536 40.1529 12.36C39.7209 12.184 39.0009 11.992 37.9929 11.784C36.6969 11.512 35.6169 11.224 34.7529 10.92C33.8889 10.6 33.1369 10.088 32.4969 9.384C31.8569 8.664 31.5369 7.696 31.5369 6.48C31.5369 5.424 31.8329 4.464 32.4249 3.6C33.0169 2.736 33.8969 2.056 35.0649 1.56C36.2489 1.064 37.6809 0.816 39.3609 0.816C40.5129 0.816 41.6409 0.943999 42.7449 1.2C43.8649 1.44 44.8489 1.8 45.6969 2.28L43.9929 6.384C42.3449 5.552 40.7849 5.136 39.3129 5.136C37.8569 5.136 37.1289 5.488 37.1289 6.192C37.1289 6.528 37.3449 6.784 37.7769 6.96C38.2089 7.12 38.9209 7.296 39.9129 7.488C41.1929 7.728 42.2729 8.008 43.1529 8.328C44.0329 8.632 44.7929 9.136 45.4329 9.84C46.0889 10.544 46.4169 11.504 46.4169 12.72C46.4169 13.776 46.1209 14.736 45.5289 15.6C44.9369 16.448 44.0489 17.128 42.8649 17.64C41.6969 18.136 40.2729 18.384 38.5929 18.384ZM7.032 24.472V27.352H14.04V31.624H7.032V37H1.368V20.2H15.024V24.472H7.032ZM16.8133 20.2H22.4773V37H16.8133V20.2ZM25.2039 20.2H30.8679V32.608H38.4519V37H25.2039V20.2ZM55.0164 37L54.9684 29.344L51.3204 35.488H48.8244L45.1764 29.608V37H40.0164V20.2H44.6724L50.1444 29.152L55.4724 20.2H60.1284L60.1764 37H55.0164ZM69.1789 37.384C67.7869 37.384 66.4269 37.232 65.0989 36.928C63.7869 36.608 62.7069 36.184 61.8589 35.656L63.6829 31.528C64.4829 31.992 65.3789 32.368 66.3709 32.656C67.3629 32.928 68.3149 33.064 69.2269 33.064C70.0109 33.064 70.5709 32.992 70.9069 32.848C71.2429 32.688 71.4109 32.456 71.4109 32.152C71.4109 31.8 71.1869 31.536 70.7389 31.36C70.3069 31.184 69.5869 30.992 68.5789 30.784C67.2829 30.512 66.2029 30.224 65.3389 29.92C64.4749 29.6 63.7229 29.088 63.0829 28.384C62.4429 27.664 62.1229 26.696 62.1229 25.48C62.1229 24.424 62.4189 23.464 63.0109 22.6C63.6029 21.736 64.4829 21.056 65.6509 20.56C66.8349 20.064 68.2669 19.816 69.9469 19.816C71.0989 19.816 72.2269 19.944 73.3309 20.2C74.4509 20.44 75.4349 20.8 76.2829 21.28L74.5789 25.384C72.9309 24.552 71.3709 24.136 69.8989 24.136C68.4429 24.136 67.7149 24.488 67.7149 25.192C67.7149 25.528 67.9309 25.784 68.3629 25.96C68.7949 26.12 69.5069 26.296 70.4989 26.488C71.7789 26.728 72.8589 27.008 73.7389 27.328C74.6189 27.632 75.3789 28.136 76.0189 28.84C76.6749 29.544 77.0029 30.504 77.0029 31.72C77.0029 32.776 76.7069 33.736 76.1149 34.6C75.5229 35.448 74.6349 36.128 73.4509 36.64C72.2829 37.136 70.8589 37.384 69.1789 37.384ZM1.368 39.2H9.648C11.52 39.2 13.168 39.544 14.592 40.232C16.032 40.904 17.144 41.872 17.928 43.136C18.728 44.4 19.128 45.888 19.128 47.6C19.128 49.312 18.728 50.8 17.928 52.064C17.144 53.328 16.032 54.304 14.592 54.992C13.168 55.664 11.52 56 9.648 56H1.368V39.2ZM9.408 51.584C10.624 51.584 11.592 51.24 12.312 50.552C13.048 49.848 13.416 48.864 13.416 47.6C13.416 46.336 13.048 45.36 12.312 44.672C11.592 43.968 10.624 43.616 9.408 43.616H7.032V51.584H9.408ZM35.1641 51.728V56H21.1961V39.2H34.8521V43.472H26.7641V45.44H33.8681V49.52H26.7641V51.728H35.1641ZM9.456 58.2C11.008 58.2 12.36 58.456 13.512 58.968C14.664 59.48 15.552 60.216 16.176 61.176C16.8 62.136 17.112 63.256 17.112 64.536C17.112 65.816 16.8 66.936 16.176 67.896C15.552 68.856 14.664 69.592 13.512 70.104C12.36 70.616 11.008 70.872 9.456 70.872H7.032V75H1.368V58.2H9.456ZM9.096 66.504C9.864 66.504 10.44 66.336 10.824 66C11.208 65.648 11.4 65.16 11.4 64.536C11.4 63.912 11.208 63.432 10.824 63.096C10.44 62.744 9.864 62.568 9.096 62.568H7.032V66.504H9.096ZM18.9696 58.2H24.6336V70.608H32.2176V75H18.9696V58.2ZM47.7501 70.728V75H33.7821V58.2H47.4381V62.472H39.3501V64.44H46.4541V68.52H39.3501V70.728H47.7501ZM49.9305 58.2H55.5945V75H49.9305V58.2ZM74.8811 58.2V75H70.2251L63.8411 67.368V75H58.3211V58.2H62.9771L69.3611 65.832V58.2H74.8811ZM12.816 91.072H6.432L5.304 94H-0.456L6.888 77.2H12.456L19.8 94H13.944L12.816 91.072ZM11.256 86.992L9.624 82.768L7.992 86.992H11.256ZM20.7039 77.2H26.3679V94H20.7039V77.2ZM36.2946 89.776H34.7586V94H29.0946V77.2H37.1826C38.7346 77.2 40.0866 77.456 41.2386 77.968C42.3906 78.48 43.2786 79.216 43.9026 80.176C44.5266 81.136 44.8386 82.256 44.8386 83.536C44.8386 84.736 44.5666 85.784 44.0226 86.68C43.4786 87.576 42.6946 88.288 41.6706 88.816L45.1986 94H39.1506L36.2946 89.776ZM39.1266 83.536C39.1266 82.912 38.9346 82.432 38.5506 82.096C38.1666 81.744 37.5906 81.568 36.8226 81.568H34.7586V85.504H36.8226C37.5906 85.504 38.1666 85.336 38.5506 85C38.9346 84.648 39.1266 84.16 39.1266 83.536Z" fill="white"/>
</g>
<defs>
<clipPath id="clip0_14_8">
<rect width="96" height="96" fill="white"/>
</clipPath>
</defs>
</svg>
