<svg width="80" height="80" viewBox="0 0 80 80" fill="none" xmlns="http://www.w3.org/2000/svg">
<g clip-path="url(#clip0_14_8)">
<rect width="80" height="80" fill="black"/>
<path d="M1.14 0.999999H5.86V11.34H12.18V15H1.14V0.999999ZM25.1238 11.44V15H13.4838V0.999999H24.8638V4.56H18.1238V6.2H24.0438V9.6H18.1238V11.44H25.1238ZM32.1608 15.32C31.0008 15.32 29.8674 15.1933 28.7608 14.94C27.6674 14.6733 26.7674 14.32 26.0608 13.88L27.5808 10.44C28.2474 10.8267 28.9941 11.14 29.8208 11.38C30.6474 11.6067 31.4408 11.72 32.2008 11.72C32.8541 11.72 33.3208 11.66 33.6008 11.54C33.8808 11.4067 34.0208 11.2133 34.0208 10.96C34.0208 10.6667 33.8341 10.4467 33.4608 10.3C33.1008 10.1533 32.5008 9.99333 31.6608 9.82C30.5808 9.59333 29.6808 9.35333 28.9608 9.1C28.2408 8.83333 27.6141 8.40667 27.0808 7.82C26.5474 7.22 26.2808 6.41333 26.2808 5.4C26.2808 4.52 26.5274 3.72 27.0208 3C27.5141 2.28 28.2474 1.71333 29.2208 1.3C30.2074 0.886666 31.4008 0.68 32.8008 0.68C33.7608 0.68 34.7008 0.786666 35.6208 0.999999C36.5541 1.2 37.3741 1.5 38.0808 1.9L36.6608 5.32C35.2874 4.62667 33.9874 4.28 32.7608 4.28C31.5474 4.28 30.9408 4.57333 30.9408 5.16C30.9408 5.44 31.1208 5.65333 31.4808 5.8C31.8408 5.93333 32.4341 6.08 33.2608 6.24C34.3274 6.44 35.2274 6.67333 35.9608 6.94C36.6941 7.19333 37.3274 7.61333 37.8608 8.2C38.4074 8.78667 38.6808 9.58667 38.6808 10.6C38.6808 11.48 38.4341 12.28 37.9408 13C37.4474 13.7067 36.7074 14.2733 35.7208 14.7C34.7474 15.1133 33.5608 15.32 32.1608 15.32ZM5.86 20.56V22.96H11.7V26.52H5.86V31H1.14V17H12.52V20.56H5.86ZM14.0111 17H18.7311V31H14.0111V17ZM21.0033 17H25.7233V27.34H32.0433V31H21.0033V17ZM45.847 31L45.807 24.62L42.767 29.74H40.687L37.647 24.84V31H33.347V17H37.227L41.787 24.46L46.227 17H50.107L50.147 31H45.847ZM57.6491 31.32C56.4891 31.32 55.3557 31.1933 54.2491 30.94C53.1557 30.6733 52.2557 30.32 51.5491 29.88L53.0691 26.44C53.7357 26.8267 54.4824 27.14 55.3091 27.38C56.1357 27.6067 56.9291 27.72 57.6891 27.72C58.3424 27.72 58.8091 27.66 59.0891 27.54C59.3691 27.4067 59.5091 27.2133 59.5091 26.96C59.5091 26.6667 59.3224 26.4467 58.9491 26.3C58.5891 26.1533 57.9891 25.9933 57.1491 25.82C56.0691 25.5933 55.1691 25.3533 54.4491 25.1C53.7291 24.8333 53.1024 24.4067 52.5691 23.82C52.0357 23.22 51.7691 22.4133 51.7691 21.4C51.7691 20.52 52.0157 19.72 52.5091 19C53.0024 18.28 53.7357 17.7133 54.7091 17.3C55.6957 16.8867 56.8891 16.68 58.2891 16.68C59.2491 16.68 60.1891 16.7867 61.1091 17C62.0424 17.2 62.8624 17.5 63.5691 17.9L62.1491 21.32C60.7757 20.6267 59.4757 20.28 58.2491 20.28C57.0357 20.28 56.4291 20.5733 56.4291 21.16C56.4291 21.44 56.6091 21.6533 56.9691 21.8C57.3291 21.9333 57.9224 22.08 58.7491 22.24C59.8157 22.44 60.7157 22.6733 61.4491 22.94C62.1824 23.1933 62.8157 23.6133 63.3491 24.2C63.8957 24.7867 64.1691 25.5867 64.1691 26.6C64.1691 27.48 63.9224 28.28 63.4291 29C62.9357 29.7067 62.1957 30.2733 61.2091 30.7C60.2357 31.1133 59.0491 31.32 57.6491 31.32ZM1.14 33H8.04C9.6 33 10.9733 33.2867 12.16 33.86C13.36 34.42 14.2867 35.2267 14.94 36.28C15.6067 37.3333 15.94 38.5733 15.94 40C15.94 41.4267 15.6067 42.6667 14.94 43.72C14.2867 44.7733 13.36 45.5867 12.16 46.16C10.9733 46.72 9.6 47 8.04 47H1.14V33ZM7.84 43.32C8.85333 43.32 9.66 43.0333 10.26 42.46C10.8733 41.8733 11.18 41.0533 11.18 40C11.18 38.9467 10.8733 38.1333 10.26 37.56C9.66 36.9733 8.85333 36.68 7.84 36.68H5.86V43.32H7.84ZM29.3034 43.44V47H17.6634V33H29.0434V36.56H22.3034V38.2H28.2234V41.6H22.3034V43.44H29.3034ZM7.88 49C9.17333 49 10.3 49.2133 11.26 49.64C12.22 50.0667 12.96 50.68 13.48 51.48C14 52.28 14.26 53.2133 14.26 54.28C14.26 55.3467 14 56.28 13.48 57.08C12.96 57.88 12.22 58.4933 11.26 58.92C10.3 59.3467 9.17333 59.56 7.88 59.56H5.86V63H1.14V49H7.88ZM7.58 55.92C8.22 55.92 8.7 55.78 9.02 55.5C9.34 55.2067 9.5 54.8 9.5 54.28C9.5 53.76 9.34 53.36 9.02 53.08C8.7 52.7867 8.22 52.64 7.58 52.64H5.86V55.92H7.58ZM15.808 49H20.528V59.34H26.848V63H15.808V49ZM39.7917 59.44V63H28.1517V49H39.5317V52.56H32.7917V54.2H38.7117V57.6H32.7917V59.44H39.7917ZM41.6088 49H46.3288V63H41.6088V49ZM62.4009 49V63H58.5209L53.2009 56.64V63H48.6009V49H52.4809L57.8009 55.36V49H62.4009ZM10.68 76.56H5.36L4.42 79H-0.38L5.74 65H10.38L16.5 79H11.62L10.68 76.56ZM9.38 73.16L8.02 69.64L6.66 73.16H9.38ZM17.2533 65H21.9733V79H17.2533V65ZM30.2455 75.48H28.9655V79H24.2455V65H30.9855C32.2788 65 33.4055 65.2133 34.3655 65.64C35.3255 66.0667 36.0655 66.68 36.5855 67.48C37.1055 68.28 37.3655 69.2133 37.3655 70.28C37.3655 71.28 37.1388 72.1533 36.6855 72.9C36.2321 73.6467 35.5788 74.24 34.7255 74.68L37.6655 79H32.6255L30.2455 75.48ZM32.6055 70.28C32.6055 69.76 32.4455 69.36 32.1255 69.08C31.8055 68.7867 31.3255 68.64 30.6855 68.64H28.9655V71.92H30.6855C31.3255 71.92 31.8055 71.78 32.1255 71.5C32.4455 71.2067 32.6055 70.8 32.6055 70.28Z" fill="white"/>
</g>
<defs>
<clipPath id="clip0_14_8">
<rect width="80" height="80" fill="white"/>
</clipPath>
</defs>
</svg>
